<?xml version="1.0" encoding="UTF-8" standalone="no"?>
<!DOCTYPE svg PUBLIC "-//W3C//DTD SVG 1.1//EN"
 "http://www.w3.org/Graphics/SVG/1.1/DTD/svg11.dtd">
<!-- Generated by graphviz version 2.43.0 (0)
 -->
<!-- Title: List Pages: 1 -->
<svg width="2471pt" height="264pt"
 viewBox="0.00 0.00 2471.00 263.50" xmlns="http://www.w3.org/2000/svg" xmlns:xlink="http://www.w3.org/1999/xlink">
<g id="graph0" class="graph" transform="scale(1 1) rotate(0) translate(4 259.5)">
<title>List</title>
<polygon fill="#696969" stroke="transparent" points="-4,4 -4,-259.5 2467,-259.5 2467,4 -4,4"/>
<text text-anchor="middle" x="1231.5" y="-7.8" font-family="Times,serif" font-size="14.00">list_dump from function hash_table_dump_text, List/./src/hash_table.cpp:249</text>
<!-- 0 -->
<g id="node1" class="node">
<title>0</title>
<path fill="#ff0000" stroke="black" d="M12,-90C12,-90 83,-90 83,-90 89,-90 95,-96 95,-102 95,-102 95,-170 95,-170 95,-176 89,-182 83,-182 83,-182 12,-182 12,-182 6,-182 0,-176 0,-170 0,-170 0,-102 0,-102 0,-96 6,-90 12,-90"/>
<text text-anchor="middle" x="47.5" y="-166.8" font-family="Times,serif" font-size="14.00">idx: 0</text>
<polyline fill="none" stroke="black" points="0,-159 95,-159 "/>
<text text-anchor="middle" x="47.5" y="-143.8" font-family="Times,serif" font-size="14.00">data: (null)</text>
<polyline fill="none" stroke="black" points="0,-136 95,-136 "/>
<text text-anchor="middle" x="47.5" y="-120.8" font-family="Times,serif" font-size="14.00">next: 1</text>
<polyline fill="none" stroke="black" points="0,-113 95,-113 "/>
<text text-anchor="middle" x="47.5" y="-97.8" font-family="Times,serif" font-size="14.00">prev: 7</text>
</g>
<!-- 0&#45;&gt;0 -->
<g id="edge1" class="edge">
<title>0&#45;&gt;0</title>
<path fill="none" stroke="#696969" d="M22.2,-182.09C24.38,-192.7 32.81,-200.5 47.5,-200.5 61.96,-200.5 70.36,-192.95 72.7,-182.59"/>
<polygon fill="#696969" stroke="#696969" points="72.8,-182.09 72.8,-182.09 72.8,-182.09 72.8,-182.09"/>
</g>
<!-- 1 -->
<g id="node2" class="node">
<title>1</title>
<path fill="#ccff99" stroke="black" d="M143,-90C143,-90 229,-90 229,-90 235,-90 241,-96 241,-102 241,-102 241,-170 241,-170 241,-176 235,-182 229,-182 229,-182 143,-182 143,-182 137,-182 131,-176 131,-170 131,-170 131,-102 131,-102 131,-96 137,-90 143,-90"/>
<text text-anchor="middle" x="186" y="-166.8" font-family="Times,serif" font-size="14.00">idx: 1</text>
<polyline fill="none" stroke="black" points="131,-159 241,-159 "/>
<text text-anchor="middle" x="186" y="-143.8" font-family="Times,serif" font-size="14.00">data: shining</text>
<polyline fill="none" stroke="black" points="131,-136 241,-136 "/>
<text text-anchor="middle" x="186" y="-120.8" font-family="Times,serif" font-size="14.00">next: 2</text>
<polyline fill="none" stroke="black" points="131,-113 241,-113 "/>
<text text-anchor="middle" x="186" y="-97.8" font-family="Times,serif" font-size="14.00">prev: 0</text>
</g>
<!-- 0&#45;&gt;1 -->
<g id="edge2" class="edge">
<title>0&#45;&gt;1</title>
<path fill="none" stroke="#696969" d="M95.09,-129.56C106.43,-129.22 118.67,-129.16 130.34,-129.37"/>
<polygon fill="#696969" stroke="#696969" points="130.62,-129.38 130.62,-129.38 130.62,-129.38 130.62,-129.38"/>
</g>
<!-- 0&#45;&gt;1 -->
<g id="edge20" class="edge">
<title>0&#45;&gt;1</title>
<path fill="none" stroke="black" d="M95.09,-142.44C103.31,-142.68 111.99,-142.78 120.59,-142.74"/>
<polygon fill="black" stroke="black" points="120.66,-146.24 130.62,-142.62 120.58,-139.24 120.66,-146.24"/>
</g>
<!-- 2 -->
<g id="node3" class="node">
<title>2</title>
<path fill="#ccff99" stroke="black" d="M289,-90C289,-90 375,-90 375,-90 381,-90 387,-96 387,-102 387,-102 387,-170 387,-170 387,-176 381,-182 375,-182 375,-182 289,-182 289,-182 283,-182 277,-176 277,-170 277,-170 277,-102 277,-102 277,-96 283,-90 289,-90"/>
<text text-anchor="middle" x="332" y="-166.8" font-family="Times,serif" font-size="14.00">idx: 2</text>
<polyline fill="none" stroke="black" points="277,-159 387,-159 "/>
<text text-anchor="middle" x="332" y="-143.8" font-family="Times,serif" font-size="14.00">data: shining</text>
<polyline fill="none" stroke="black" points="277,-136 387,-136 "/>
<text text-anchor="middle" x="332" y="-120.8" font-family="Times,serif" font-size="14.00">next: 3</text>
<polyline fill="none" stroke="black" points="277,-113 387,-113 "/>
<text text-anchor="middle" x="332" y="-97.8" font-family="Times,serif" font-size="14.00">prev: 1</text>
</g>
<!-- 1&#45;&gt;2 -->
<g id="edge3" class="edge">
<title>1&#45;&gt;2</title>
<path fill="none" stroke="#696969" d="M241.03,-129.44C252.59,-129.19 264.81,-129.19 276.39,-129.43"/>
<polygon fill="#696969" stroke="#696969" points="276.67,-129.43 276.67,-129.43 276.67,-129.43 276.67,-129.43"/>
</g>
<!-- 1&#45;&gt;2 -->
<g id="edge21" class="edge">
<title>1&#45;&gt;2</title>
<path fill="none" stroke="black" d="M241.03,-142.56C249.31,-142.74 257.94,-142.79 266.42,-142.72"/>
<polygon fill="black" stroke="black" points="266.72,-146.21 276.67,-142.57 266.62,-139.21 266.72,-146.21"/>
</g>
<!-- 3 -->
<g id="node4" class="node">
<title>3</title>
<path fill="#ccff99" stroke="black" d="M435,-90C435,-90 521,-90 521,-90 527,-90 533,-96 533,-102 533,-102 533,-170 533,-170 533,-176 527,-182 521,-182 521,-182 435,-182 435,-182 429,-182 423,-176 423,-170 423,-170 423,-102 423,-102 423,-96 429,-90 435,-90"/>
<text text-anchor="middle" x="478" y="-166.8" font-family="Times,serif" font-size="14.00">idx: 3</text>
<polyline fill="none" stroke="black" points="423,-159 533,-159 "/>
<text text-anchor="middle" x="478" y="-143.8" font-family="Times,serif" font-size="14.00">data: shining</text>
<polyline fill="none" stroke="black" points="423,-136 533,-136 "/>
<text text-anchor="middle" x="478" y="-120.8" font-family="Times,serif" font-size="14.00">next: 4</text>
<polyline fill="none" stroke="black" points="423,-113 533,-113 "/>
<text text-anchor="middle" x="478" y="-97.8" font-family="Times,serif" font-size="14.00">prev: 2</text>
</g>
<!-- 2&#45;&gt;3 -->
<g id="edge4" class="edge">
<title>2&#45;&gt;3</title>
<path fill="none" stroke="#696969" d="M387.03,-129.44C398.59,-129.19 410.81,-129.19 422.39,-129.43"/>
<polygon fill="#696969" stroke="#696969" points="422.67,-129.43 422.67,-129.43 422.67,-129.43 422.67,-129.43"/>
</g>
<!-- 2&#45;&gt;3 -->
<g id="edge22" class="edge">
<title>2&#45;&gt;3</title>
<path fill="none" stroke="black" d="M387.03,-142.56C395.31,-142.74 403.94,-142.79 412.42,-142.72"/>
<polygon fill="black" stroke="black" points="412.72,-146.21 422.67,-142.57 412.62,-139.21 412.72,-146.21"/>
</g>
<!-- 4 -->
<g id="node5" class="node">
<title>4</title>
<path fill="#ccff99" stroke="black" d="M581,-90C581,-90 667,-90 667,-90 673,-90 679,-96 679,-102 679,-102 679,-170 679,-170 679,-176 673,-182 667,-182 667,-182 581,-182 581,-182 575,-182 569,-176 569,-170 569,-170 569,-102 569,-102 569,-96 575,-90 581,-90"/>
<text text-anchor="middle" x="624" y="-166.8" font-family="Times,serif" font-size="14.00">idx: 4</text>
<polyline fill="none" stroke="black" points="569,-159 679,-159 "/>
<text text-anchor="middle" x="624" y="-143.8" font-family="Times,serif" font-size="14.00">data: Believe</text>
<polyline fill="none" stroke="black" points="569,-136 679,-136 "/>
<text text-anchor="middle" x="624" y="-120.8" font-family="Times,serif" font-size="14.00">next: 5</text>
<polyline fill="none" stroke="black" points="569,-113 679,-113 "/>
<text text-anchor="middle" x="624" y="-97.8" font-family="Times,serif" font-size="14.00">prev: 3</text>
</g>
<!-- 3&#45;&gt;4 -->
<g id="edge5" class="edge">
<title>3&#45;&gt;4</title>
<path fill="none" stroke="#696969" d="M533.03,-129.44C544.59,-129.19 556.81,-129.19 568.39,-129.43"/>
<polygon fill="#696969" stroke="#696969" points="568.67,-129.43 568.67,-129.43 568.67,-129.43 568.67,-129.43"/>
</g>
<!-- 3&#45;&gt;4 -->
<g id="edge23" class="edge">
<title>3&#45;&gt;4</title>
<path fill="none" stroke="black" d="M533.03,-142.56C541.31,-142.74 549.94,-142.79 558.42,-142.72"/>
<polygon fill="black" stroke="black" points="558.72,-146.21 568.67,-142.57 558.62,-139.21 558.72,-146.21"/>
</g>
<!-- 5 -->
<g id="node6" class="node">
<title>5</title>
<path fill="#ccff99" stroke="black" d="M727,-90C727,-90 813,-90 813,-90 819,-90 825,-96 825,-102 825,-102 825,-170 825,-170 825,-176 819,-182 813,-182 813,-182 727,-182 727,-182 721,-182 715,-176 715,-170 715,-170 715,-102 715,-102 715,-96 721,-90 727,-90"/>
<text text-anchor="middle" x="770" y="-166.8" font-family="Times,serif" font-size="14.00">idx: 5</text>
<polyline fill="none" stroke="black" points="715,-159 825,-159 "/>
<text text-anchor="middle" x="770" y="-143.8" font-family="Times,serif" font-size="14.00">data: shining</text>
<polyline fill="none" stroke="black" points="715,-136 825,-136 "/>
<text text-anchor="middle" x="770" y="-120.8" font-family="Times,serif" font-size="14.00">next: 6</text>
<polyline fill="none" stroke="black" points="715,-113 825,-113 "/>
<text text-anchor="middle" x="770" y="-97.8" font-family="Times,serif" font-size="14.00">prev: 4</text>
</g>
<!-- 4&#45;&gt;5 -->
<g id="edge6" class="edge">
<title>4&#45;&gt;5</title>
<path fill="none" stroke="#696969" d="M679.03,-129.44C690.59,-129.19 702.81,-129.19 714.39,-129.43"/>
<polygon fill="#696969" stroke="#696969" points="714.67,-129.43 714.67,-129.43 714.67,-129.43 714.67,-129.43"/>
</g>
<!-- 4&#45;&gt;5 -->
<g id="edge24" class="edge">
<title>4&#45;&gt;5</title>
<path fill="none" stroke="black" d="M679.03,-142.56C687.31,-142.74 695.94,-142.79 704.42,-142.72"/>
<polygon fill="black" stroke="black" points="704.72,-146.21 714.67,-142.57 704.62,-139.21 704.72,-146.21"/>
</g>
<!-- 6 -->
<g id="node7" class="node">
<title>6</title>
<path fill="#ccff99" stroke="black" d="M873,-90C873,-90 959,-90 959,-90 965,-90 971,-96 971,-102 971,-102 971,-170 971,-170 971,-176 965,-182 959,-182 959,-182 873,-182 873,-182 867,-182 861,-176 861,-170 861,-170 861,-102 861,-102 861,-96 867,-90 873,-90"/>
<text text-anchor="middle" x="916" y="-166.8" font-family="Times,serif" font-size="14.00">idx: 6</text>
<polyline fill="none" stroke="black" points="861,-159 971,-159 "/>
<text text-anchor="middle" x="916" y="-143.8" font-family="Times,serif" font-size="14.00">data: Believe</text>
<polyline fill="none" stroke="black" points="861,-136 971,-136 "/>
<text text-anchor="middle" x="916" y="-120.8" font-family="Times,serif" font-size="14.00">next: 7</text>
<polyline fill="none" stroke="black" points="861,-113 971,-113 "/>
<text text-anchor="middle" x="916" y="-97.8" font-family="Times,serif" font-size="14.00">prev: 5</text>
</g>
<!-- 5&#45;&gt;6 -->
<g id="edge7" class="edge">
<title>5&#45;&gt;6</title>
<path fill="none" stroke="#696969" d="M825.03,-129.44C836.59,-129.19 848.81,-129.19 860.39,-129.43"/>
<polygon fill="#696969" stroke="#696969" points="860.67,-129.43 860.67,-129.43 860.67,-129.43 860.67,-129.43"/>
</g>
<!-- 5&#45;&gt;6 -->
<g id="edge25" class="edge">
<title>5&#45;&gt;6</title>
<path fill="none" stroke="black" d="M825.03,-142.56C833.31,-142.74 841.94,-142.79 850.42,-142.72"/>
<polygon fill="black" stroke="black" points="850.72,-146.21 860.67,-142.57 850.62,-139.21 850.72,-146.21"/>
</g>
<!-- 7 -->
<g id="node8" class="node">
<title>7</title>
<path fill="#ccff99" stroke="black" d="M1019,-90C1019,-90 1105,-90 1105,-90 1111,-90 1117,-96 1117,-102 1117,-102 1117,-170 1117,-170 1117,-176 1111,-182 1105,-182 1105,-182 1019,-182 1019,-182 1013,-182 1007,-176 1007,-170 1007,-170 1007,-102 1007,-102 1007,-96 1013,-90 1019,-90"/>
<text text-anchor="middle" x="1062" y="-166.8" font-family="Times,serif" font-size="14.00">idx: 7</text>
<polyline fill="none" stroke="black" points="1007,-159 1117,-159 "/>
<text text-anchor="middle" x="1062" y="-143.8" font-family="Times,serif" font-size="14.00">data: Believe</text>
<polyline fill="none" stroke="black" points="1007,-136 1117,-136 "/>
<text text-anchor="middle" x="1062" y="-120.8" font-family="Times,serif" font-size="14.00">next: 0</text>
<polyline fill="none" stroke="black" points="1007,-113 1117,-113 "/>
<text text-anchor="middle" x="1062" y="-97.8" font-family="Times,serif" font-size="14.00">prev: 6</text>
</g>
<!-- 6&#45;&gt;7 -->
<g id="edge8" class="edge">
<title>6&#45;&gt;7</title>
<path fill="none" stroke="#696969" d="M971.03,-129.44C982.59,-129.19 994.81,-129.19 1006.39,-129.43"/>
<polygon fill="#696969" stroke="#696969" points="1006.67,-129.43 1006.67,-129.43 1006.67,-129.43 1006.67,-129.43"/>
</g>
<!-- 6&#45;&gt;7 -->
<g id="edge26" class="edge">
<title>6&#45;&gt;7</title>
<path fill="none" stroke="black" d="M971.03,-142.56C979.31,-142.74 987.94,-142.79 996.42,-142.72"/>
<polygon fill="black" stroke="black" points="996.72,-146.21 1006.67,-142.57 996.62,-139.21 996.72,-146.21"/>
</g>
<!-- 7&#45;&gt;0 -->
<g id="edge27" class="edge">
<title>7&#45;&gt;0</title>
<path fill="none" stroke="black" d="M1006.84,-96.8C995.46,-90.18 983.2,-84.12 971,-80 886.4,-51.43 860.29,-61 771,-61 331,-61 331,-61 331,-61 241.71,-61 215.01,-49.76 131,-80 121.72,-83.34 112.48,-87.97 103.72,-93.15"/>
<polygon fill="black" stroke="black" points="101.79,-90.23 95.14,-98.49 105.48,-96.18 101.79,-90.23"/>
</g>
<!-- 8 -->
<g id="node9" class="node">
<title>8</title>
<path fill="#00bfff" stroke="black" d="M1165,-90C1165,-90 1236,-90 1236,-90 1242,-90 1248,-96 1248,-102 1248,-102 1248,-170 1248,-170 1248,-176 1242,-182 1236,-182 1236,-182 1165,-182 1165,-182 1159,-182 1153,-176 1153,-170 1153,-170 1153,-102 1153,-102 1153,-96 1159,-90 1165,-90"/>
<text text-anchor="middle" x="1200.5" y="-166.8" font-family="Times,serif" font-size="14.00">idx: 8</text>
<polyline fill="none" stroke="black" points="1153,-159 1248,-159 "/>
<text text-anchor="middle" x="1200.5" y="-143.8" font-family="Times,serif" font-size="14.00">data: (null)</text>
<polyline fill="none" stroke="black" points="1153,-136 1248,-136 "/>
<text text-anchor="middle" x="1200.5" y="-120.8" font-family="Times,serif" font-size="14.00">next: 9</text>
<polyline fill="none" stroke="black" points="1153,-113 1248,-113 "/>
<text text-anchor="middle" x="1200.5" y="-97.8" font-family="Times,serif" font-size="14.00">prev: &#45;1</text>
</g>
<!-- 7&#45;&gt;8 -->
<g id="edge9" class="edge">
<title>7&#45;&gt;8</title>
<path fill="none" stroke="#696969" d="M1117.34,-136C1129,-136 1141.22,-136 1152.56,-136"/>
<polygon fill="#696969" stroke="#696969" points="1152.83,-136 1152.83,-136 1152.83,-136 1152.83,-136"/>
</g>
<!-- 9 -->
<g id="node10" class="node">
<title>9</title>
<path fill="#00bfff" stroke="black" d="M1296,-90C1296,-90 1367,-90 1367,-90 1373,-90 1379,-96 1379,-102 1379,-102 1379,-170 1379,-170 1379,-176 1373,-182 1367,-182 1367,-182 1296,-182 1296,-182 1290,-182 1284,-176 1284,-170 1284,-170 1284,-102 1284,-102 1284,-96 1290,-90 1296,-90"/>
<text text-anchor="middle" x="1331.5" y="-166.8" font-family="Times,serif" font-size="14.00">idx: 9</text>
<polyline fill="none" stroke="black" points="1284,-159 1379,-159 "/>
<text text-anchor="middle" x="1331.5" y="-143.8" font-family="Times,serif" font-size="14.00">data: (null)</text>
<polyline fill="none" stroke="black" points="1284,-136 1379,-136 "/>
<text text-anchor="middle" x="1331.5" y="-120.8" font-family="Times,serif" font-size="14.00">next: 10</text>
<polyline fill="none" stroke="black" points="1284,-113 1379,-113 "/>
<text text-anchor="middle" x="1331.5" y="-97.8" font-family="Times,serif" font-size="14.00">prev: &#45;1</text>
</g>
<!-- 8&#45;&gt;9 -->
<g id="edge10" class="edge">
<title>8&#45;&gt;9</title>
<path fill="none" stroke="#696969" d="M1248.07,-129.49C1259.67,-129.17 1272.11,-129.17 1283.72,-129.48"/>
<polygon fill="#696969" stroke="#696969" points="1284,-129.49 1284,-129.49 1284,-129.49 1284,-129.49"/>
</g>
<!-- 8&#45;&gt;9 -->
<g id="edge28" class="edge">
<title>8&#45;&gt;9</title>
<path fill="none" stroke="black" d="M1248.07,-142.51C1256.48,-142.74 1265.32,-142.8 1273.97,-142.7"/>
<polygon fill="black" stroke="black" points="1274.07,-146.2 1284,-142.51 1273.93,-139.2 1274.07,-146.2"/>
</g>
<!-- 10 -->
<g id="node11" class="node">
<title>10</title>
<path fill="#00bfff" stroke="black" d="M1427,-90C1427,-90 1498,-90 1498,-90 1504,-90 1510,-96 1510,-102 1510,-102 1510,-170 1510,-170 1510,-176 1504,-182 1498,-182 1498,-182 1427,-182 1427,-182 1421,-182 1415,-176 1415,-170 1415,-170 1415,-102 1415,-102 1415,-96 1421,-90 1427,-90"/>
<text text-anchor="middle" x="1462.5" y="-166.8" font-family="Times,serif" font-size="14.00">idx: 10</text>
<polyline fill="none" stroke="black" points="1415,-159 1510,-159 "/>
<text text-anchor="middle" x="1462.5" y="-143.8" font-family="Times,serif" font-size="14.00">data: (null)</text>
<polyline fill="none" stroke="black" points="1415,-136 1510,-136 "/>
<text text-anchor="middle" x="1462.5" y="-120.8" font-family="Times,serif" font-size="14.00">next: 11</text>
<polyline fill="none" stroke="black" points="1415,-113 1510,-113 "/>
<text text-anchor="middle" x="1462.5" y="-97.8" font-family="Times,serif" font-size="14.00">prev: &#45;1</text>
</g>
<!-- 9&#45;&gt;10 -->
<g id="edge11" class="edge">
<title>9&#45;&gt;10</title>
<path fill="none" stroke="#696969" d="M1379.07,-129.49C1390.67,-129.17 1403.11,-129.17 1414.72,-129.48"/>
<polygon fill="#696969" stroke="#696969" points="1415,-129.49 1415,-129.49 1415,-129.49 1415,-129.49"/>
</g>
<!-- 9&#45;&gt;10 -->
<g id="edge29" class="edge">
<title>9&#45;&gt;10</title>
<path fill="none" stroke="black" d="M1379.07,-142.51C1387.48,-142.74 1396.32,-142.8 1404.97,-142.7"/>
<polygon fill="black" stroke="black" points="1405.07,-146.2 1415,-142.51 1404.93,-139.2 1405.07,-146.2"/>
</g>
<!-- 11 -->
<g id="node12" class="node">
<title>11</title>
<path fill="#00bfff" stroke="black" d="M1558,-90C1558,-90 1629,-90 1629,-90 1635,-90 1641,-96 1641,-102 1641,-102 1641,-170 1641,-170 1641,-176 1635,-182 1629,-182 1629,-182 1558,-182 1558,-182 1552,-182 1546,-176 1546,-170 1546,-170 1546,-102 1546,-102 1546,-96 1552,-90 1558,-90"/>
<text text-anchor="middle" x="1593.5" y="-166.8" font-family="Times,serif" font-size="14.00">idx: 11</text>
<polyline fill="none" stroke="black" points="1546,-159 1641,-159 "/>
<text text-anchor="middle" x="1593.5" y="-143.8" font-family="Times,serif" font-size="14.00">data: (null)</text>
<polyline fill="none" stroke="black" points="1546,-136 1641,-136 "/>
<text text-anchor="middle" x="1593.5" y="-120.8" font-family="Times,serif" font-size="14.00">next: 12</text>
<polyline fill="none" stroke="black" points="1546,-113 1641,-113 "/>
<text text-anchor="middle" x="1593.5" y="-97.8" font-family="Times,serif" font-size="14.00">prev: &#45;1</text>
</g>
<!-- 10&#45;&gt;11 -->
<g id="edge12" class="edge">
<title>10&#45;&gt;11</title>
<path fill="none" stroke="#696969" d="M1510.07,-129.49C1521.67,-129.17 1534.11,-129.17 1545.72,-129.48"/>
<polygon fill="#696969" stroke="#696969" points="1546,-129.49 1546,-129.49 1546,-129.49 1546,-129.49"/>
</g>
<!-- 10&#45;&gt;11 -->
<g id="edge30" class="edge">
<title>10&#45;&gt;11</title>
<path fill="none" stroke="black" d="M1510.07,-142.51C1518.48,-142.74 1527.32,-142.8 1535.97,-142.7"/>
<polygon fill="black" stroke="black" points="1536.07,-146.2 1546,-142.51 1535.93,-139.2 1536.07,-146.2"/>
</g>
<!-- 12 -->
<g id="node13" class="node">
<title>12</title>
<path fill="#00bfff" stroke="black" d="M1689,-90C1689,-90 1760,-90 1760,-90 1766,-90 1772,-96 1772,-102 1772,-102 1772,-170 1772,-170 1772,-176 1766,-182 1760,-182 1760,-182 1689,-182 1689,-182 1683,-182 1677,-176 1677,-170 1677,-170 1677,-102 1677,-102 1677,-96 1683,-90 1689,-90"/>
<text text-anchor="middle" x="1724.5" y="-166.8" font-family="Times,serif" font-size="14.00">idx: 12</text>
<polyline fill="none" stroke="black" points="1677,-159 1772,-159 "/>
<text text-anchor="middle" x="1724.5" y="-143.8" font-family="Times,serif" font-size="14.00">data: (null)</text>
<polyline fill="none" stroke="black" points="1677,-136 1772,-136 "/>
<text text-anchor="middle" x="1724.5" y="-120.8" font-family="Times,serif" font-size="14.00">next: 13</text>
<polyline fill="none" stroke="black" points="1677,-113 1772,-113 "/>
<text text-anchor="middle" x="1724.5" y="-97.8" font-family="Times,serif" font-size="14.00">prev: &#45;1</text>
</g>
<!-- 11&#45;&gt;12 -->
<g id="edge13" class="edge">
<title>11&#45;&gt;12</title>
<path fill="none" stroke="#696969" d="M1641.07,-129.49C1652.67,-129.17 1665.11,-129.17 1676.72,-129.48"/>
<polygon fill="#696969" stroke="#696969" points="1677,-129.49 1677,-129.49 1677,-129.49 1677,-129.49"/>
</g>
<!-- 11&#45;&gt;12 -->
<g id="edge31" class="edge">
<title>11&#45;&gt;12</title>
<path fill="none" stroke="black" d="M1641.07,-142.51C1649.48,-142.74 1658.32,-142.8 1666.97,-142.7"/>
<polygon fill="black" stroke="black" points="1667.07,-146.2 1677,-142.51 1666.93,-139.2 1667.07,-146.2"/>
</g>
<!-- 13 -->
<g id="node14" class="node">
<title>13</title>
<path fill="#00bfff" stroke="black" d="M1820,-90C1820,-90 1891,-90 1891,-90 1897,-90 1903,-96 1903,-102 1903,-102 1903,-170 1903,-170 1903,-176 1897,-182 1891,-182 1891,-182 1820,-182 1820,-182 1814,-182 1808,-176 1808,-170 1808,-170 1808,-102 1808,-102 1808,-96 1814,-90 1820,-90"/>
<text text-anchor="middle" x="1855.5" y="-166.8" font-family="Times,serif" font-size="14.00">idx: 13</text>
<polyline fill="none" stroke="black" points="1808,-159 1903,-159 "/>
<text text-anchor="middle" x="1855.5" y="-143.8" font-family="Times,serif" font-size="14.00">data: (null)</text>
<polyline fill="none" stroke="black" points="1808,-136 1903,-136 "/>
<text text-anchor="middle" x="1855.5" y="-120.8" font-family="Times,serif" font-size="14.00">next: 14</text>
<polyline fill="none" stroke="black" points="1808,-113 1903,-113 "/>
<text text-anchor="middle" x="1855.5" y="-97.8" font-family="Times,serif" font-size="14.00">prev: &#45;1</text>
</g>
<!-- 12&#45;&gt;13 -->
<g id="edge14" class="edge">
<title>12&#45;&gt;13</title>
<path fill="none" stroke="#696969" d="M1772.07,-129.49C1783.67,-129.17 1796.11,-129.17 1807.72,-129.48"/>
<polygon fill="#696969" stroke="#696969" points="1808,-129.49 1808,-129.49 1808,-129.49 1808,-129.49"/>
</g>
<!-- 12&#45;&gt;13 -->
<g id="edge32" class="edge">
<title>12&#45;&gt;13</title>
<path fill="none" stroke="black" d="M1772.07,-142.51C1780.48,-142.74 1789.32,-142.8 1797.97,-142.7"/>
<polygon fill="black" stroke="black" points="1798.07,-146.2 1808,-142.51 1797.93,-139.2 1798.07,-146.2"/>
</g>
<!-- 14 -->
<g id="node15" class="node">
<title>14</title>
<path fill="#00bfff" stroke="black" d="M1951,-90C1951,-90 2022,-90 2022,-90 2028,-90 2034,-96 2034,-102 2034,-102 2034,-170 2034,-170 2034,-176 2028,-182 2022,-182 2022,-182 1951,-182 1951,-182 1945,-182 1939,-176 1939,-170 1939,-170 1939,-102 1939,-102 1939,-96 1945,-90 1951,-90"/>
<text text-anchor="middle" x="1986.5" y="-166.8" font-family="Times,serif" font-size="14.00">idx: 14</text>
<polyline fill="none" stroke="black" points="1939,-159 2034,-159 "/>
<text text-anchor="middle" x="1986.5" y="-143.8" font-family="Times,serif" font-size="14.00">data: (null)</text>
<polyline fill="none" stroke="black" points="1939,-136 2034,-136 "/>
<text text-anchor="middle" x="1986.5" y="-120.8" font-family="Times,serif" font-size="14.00">next: 15</text>
<polyline fill="none" stroke="black" points="1939,-113 2034,-113 "/>
<text text-anchor="middle" x="1986.5" y="-97.8" font-family="Times,serif" font-size="14.00">prev: &#45;1</text>
</g>
<!-- 13&#45;&gt;14 -->
<g id="edge15" class="edge">
<title>13&#45;&gt;14</title>
<path fill="none" stroke="#696969" d="M1903.07,-129.49C1914.67,-129.17 1927.11,-129.17 1938.72,-129.48"/>
<polygon fill="#696969" stroke="#696969" points="1939,-129.49 1939,-129.49 1939,-129.49 1939,-129.49"/>
</g>
<!-- 13&#45;&gt;14 -->
<g id="edge33" class="edge">
<title>13&#45;&gt;14</title>
<path fill="none" stroke="black" d="M1903.07,-142.51C1911.48,-142.74 1920.32,-142.8 1928.97,-142.7"/>
<polygon fill="black" stroke="black" points="1929.07,-146.2 1939,-142.51 1928.93,-139.2 1929.07,-146.2"/>
</g>
<!-- 15 -->
<g id="node16" class="node">
<title>15</title>
<path fill="#00bfff" stroke="black" d="M2082,-90C2082,-90 2153,-90 2153,-90 2159,-90 2165,-96 2165,-102 2165,-102 2165,-170 2165,-170 2165,-176 2159,-182 2153,-182 2153,-182 2082,-182 2082,-182 2076,-182 2070,-176 2070,-170 2070,-170 2070,-102 2070,-102 2070,-96 2076,-90 2082,-90"/>
<text text-anchor="middle" x="2117.5" y="-166.8" font-family="Times,serif" font-size="14.00">idx: 15</text>
<polyline fill="none" stroke="black" points="2070,-159 2165,-159 "/>
<text text-anchor="middle" x="2117.5" y="-143.8" font-family="Times,serif" font-size="14.00">data: (null)</text>
<polyline fill="none" stroke="black" points="2070,-136 2165,-136 "/>
<text text-anchor="middle" x="2117.5" y="-120.8" font-family="Times,serif" font-size="14.00">next: 0</text>
<polyline fill="none" stroke="black" points="2070,-113 2165,-113 "/>
<text text-anchor="middle" x="2117.5" y="-97.8" font-family="Times,serif" font-size="14.00">prev: &#45;1</text>
</g>
<!-- 14&#45;&gt;15 -->
<g id="edge16" class="edge">
<title>14&#45;&gt;15</title>
<path fill="none" stroke="#696969" d="M2034.07,-129.49C2045.67,-129.17 2058.11,-129.17 2069.72,-129.48"/>
<polygon fill="#696969" stroke="#696969" points="2070,-129.49 2070,-129.49 2070,-129.49 2070,-129.49"/>
</g>
<!-- 14&#45;&gt;15 -->
<g id="edge34" class="edge">
<title>14&#45;&gt;15</title>
<path fill="none" stroke="black" d="M2034.07,-142.51C2042.48,-142.74 2051.32,-142.8 2059.97,-142.7"/>
<polygon fill="black" stroke="black" points="2060.07,-146.2 2070,-142.51 2059.93,-139.2 2060.07,-146.2"/>
</g>
<!-- 15&#45;&gt;0 -->
<g id="edge35" class="edge">
<title>15&#45;&gt;0</title>
<path fill="none" stroke="black" d="M2069.79,-170.21C2019.68,-203.47 1936.48,-249 1856.5,-249 331,-249 331,-249 331,-249 238.45,-249 214.93,-230.01 131,-191 121.87,-186.76 112.6,-181.58 103.74,-176.12"/>
<polygon fill="black" stroke="black" points="105.35,-172.99 95.03,-170.58 101.6,-178.9 105.35,-172.99"/>
</g>
<!-- head -->
<g id="node17" class="node">
<title>head</title>
<path fill="#ccff99" stroke="black" d="M2213,-118C2213,-118 2258,-118 2258,-118 2264,-118 2270,-124 2270,-130 2270,-130 2270,-142 2270,-142 2270,-148 2264,-154 2258,-154 2258,-154 2213,-154 2213,-154 2207,-154 2201,-148 2201,-142 2201,-142 2201,-130 2201,-130 2201,-124 2207,-118 2213,-118"/>
<text text-anchor="middle" x="2235.5" y="-132.3" font-family="Times,serif" font-size="14.00">head: 1</text>
</g>
<!-- 15&#45;&gt;head -->
<g id="edge17" class="edge">
<title>15&#45;&gt;head</title>
<path fill="none" stroke="#696969" d="M2165.01,-136C2176.9,-136 2189.45,-136 2200.57,-136"/>
<polygon fill="#696969" stroke="#696969" points="2200.83,-136 2200.83,-136 2200.83,-136 2200.83,-136"/>
</g>
<!-- head&#45;&gt;1 -->
<g id="edge36" class="edge">
<title>head&#45;&gt;1</title>
<path fill="none" stroke="black" d="M2217.45,-154.05C2204.38,-166.66 2185.2,-182.68 2165,-191 2091.6,-221.24 2066.89,-211 1987.5,-211 477,-211 477,-211 477,-211 387.67,-211 361.68,-219.45 277,-191 267.98,-187.97 258.92,-183.91 250.2,-179.35"/>
<polygon fill="black" stroke="black" points="251.7,-176.18 241.25,-174.45 248.34,-182.32 251.7,-176.18"/>
</g>
<!-- tail -->
<g id="node18" class="node">
<title>tail</title>
<path fill="#ccff99" stroke="black" d="M2318,-118C2318,-118 2352,-118 2352,-118 2358,-118 2364,-124 2364,-130 2364,-130 2364,-142 2364,-142 2364,-148 2358,-154 2352,-154 2352,-154 2318,-154 2318,-154 2312,-154 2306,-148 2306,-142 2306,-142 2306,-130 2306,-130 2306,-124 2312,-118 2318,-118"/>
<text text-anchor="middle" x="2335" y="-132.3" font-family="Times,serif" font-size="14.00">tail: 7</text>
</g>
<!-- head&#45;&gt;tail -->
<g id="edge18" class="edge">
<title>head&#45;&gt;tail</title>
<path fill="none" stroke="#696969" d="M2270.05,-136C2281.64,-136 2294.5,-136 2305.63,-136"/>
<polygon fill="#696969" stroke="#696969" points="2305.89,-136 2305.89,-136 2305.89,-136 2305.89,-136"/>
</g>
<!-- tail&#45;&gt;7 -->
<g id="edge37" class="edge">
<title>tail&#45;&gt;7</title>
<path fill="none" stroke="black" d="M2323.15,-117.71C2311.98,-100.48 2292.98,-75.25 2270,-61 2211,-24.42 2187.92,-23 2118.5,-23 1330.5,-23 1330.5,-23 1330.5,-23 1255.92,-23 1178.2,-60.74 1125.88,-92.6"/>
<polygon fill="black" stroke="black" points="1123.72,-89.82 1117.06,-98.06 1127.41,-95.77 1123.72,-89.82"/>
</g>
<!-- free -->
<g id="node19" class="node">
<title>free</title>
<path fill="#00bfff" stroke="black" d="M2412,-118C2412,-118 2451,-118 2451,-118 2457,-118 2463,-124 2463,-130 2463,-130 2463,-142 2463,-142 2463,-148 2457,-154 2451,-154 2451,-154 2412,-154 2412,-154 2406,-154 2400,-148 2400,-142 2400,-142 2400,-130 2400,-130 2400,-124 2406,-118 2412,-118"/>
<text text-anchor="middle" x="2431.5" y="-132.3" font-family="Times,serif" font-size="14.00">free: 8</text>
</g>
<!-- tail&#45;&gt;free -->
<g id="edge19" class="edge">
<title>tail&#45;&gt;free</title>
<path fill="none" stroke="#696969" d="M2364.1,-136C2375.22,-136 2388.04,-136 2399.44,-136"/>
<polygon fill="#696969" stroke="#696969" points="2399.71,-136 2399.71,-136 2399.71,-136 2399.71,-136"/>
</g>
<!-- free&#45;&gt;8 -->
<g id="edge38" class="edge">
<title>free&#45;&gt;8</title>
<path fill="none" stroke="black" d="M2399.93,-153.79C2373.67,-166.55 2335.48,-178.94 2306,-163 2280.3,-149.11 2293.68,-125.12 2270,-108 2166.85,-33.43 2114.78,-61 1987.5,-61 1461.5,-61 1461.5,-61 1461.5,-61 1382.16,-61 1358.49,-52.68 1284,-80 1274.74,-83.4 1265.51,-88.06 1256.76,-93.25"/>
<polygon fill="black" stroke="black" points="1254.82,-90.33 1248.18,-98.59 1258.52,-96.28 1254.82,-90.33"/>
</g>
<!-- All -->
<g id="node20" class="node">
<title>All</title>
<path fill="#8b00ff" stroke="black" d="M18,-219C18,-219 77,-219 77,-219 83,-219 89,-225 89,-231 89,-231 89,-243 89,-243 89,-249 83,-255 77,-255 77,-255 18,-255 18,-255 12,-255 6,-249 6,-243 6,-243 6,-231 6,-231 6,-225 12,-219 18,-219"/>
<text text-anchor="middle" x="47.5" y="-233.3" font-family="Times,serif" font-size="14.00">size = 16</text>
</g>
</g>
</svg>
